<?xml version="1.0" encoding="utf-8"?>
<!-- Generator: Adobe Illustrator 19.1.0, SVG Export Plug-In . SVG Version: 6.00 Build 0)  -->
<svg version="1.1" id="Layer_1" xmlns="http://www.w3.org/2000/svg" xmlns:xlink="http://www.w3.org/1999/xlink" x="0px" y="0px"
  viewBox="0 0 94.7 137.8" style="enable-background:new 0 0 94.7 137.8;" xml:space="preserve">
  <style type="text/css">
    .st0{fill:#FEEFEA;}
    .st1{fill:#FFFFFF;}
    .st2{fill:none;stroke:#543E36;stroke-width:1.75;stroke-linecap:round;stroke-linejoin:round;stroke-miterlimit:10;}
    .st3{fill:none;stroke:#543E36;stroke-width:1.75;stroke-miterlimit:10;}
    .st4{fill:#B19177;}
    .st5{fill:none;stroke:#4A3222;stroke-width:1.75;stroke-linecap:round;stroke-linejoin:round;stroke-miterlimit:10;}
    .st6{fill:none;stroke:#543E36;stroke-width:1.75;stroke-linecap:round;stroke-miterlimit:10;}
    .st7{fill:none;stroke:#AB6748;stroke-width:1.75;stroke-linecap:round;stroke-linejoin:round;stroke-miterlimit:10;}
    .st8{fill:#AB6748;}
    .st9{fill:none;stroke:#7C3B1E;stroke-width:1.75;stroke-linecap:round;stroke-linejoin:round;stroke-miterlimit:10;}
    .st10{fill:none;stroke:#414042;stroke-width:1.75;stroke-linecap:round;stroke-linejoin:round;stroke-miterlimit:10;}
  </style>
  <path class="st0" d="M12.7,61.8c0,0-7.6-36.6,34.6-36.6s31.2,39,31.9,42c0.6,3.1,6.9,32.3-15.9,41.8C40.4,118.4,9.2,116.6,12.7,61.8
    z"/>
  <path class="st0" d="M10.9,69.1c0,0-4.4,3.4-3,7.2c1.4,3.8,2.7,7.7,4.7,6.9C14.7,82.5,10.9,69.1,10.9,69.1"/>
  <path class="st0" d="M82.1,69.3c0,0,3.9,1.6,4,6.5c0.1,5-2.8,6.6-4,7.5C81,84.1,80.5,70.8,82.1,69.3z"/>
  <path class="st1" d="M55,67.2c0,0,1.3-1.9,6-1.9c4.7,0,6.2,1.9,6.2,1.9s-1.2,3.1-6.1,3.1C56.3,70.3,55,67.2,55,67.2z"/>
  <path class="st1" d="M26.8,67.2c0,0,1.3-1.9,6-1.9c4.7,0,6.2,1.9,6.2,1.9s-1.2,3.1-6.1,3.1C28.1,70.3,26.8,67.2,26.8,67.2z"/>
  <path class="st2" d="M55.6,67.3c0,0,1.5-1.7,5.5-1.7c4,0,5.6,1.7,5.6,1.7"/>
  <path class="st2" d="M38.5,67.3c0,0-1.5-1.7-5.5-1.7c-4,0-5.6,1.7-5.6,1.7"/>
  <path class="st2" d="M11.3,81"/>
  <path class="st2" d="M11.6,71.1"/>
  <circle class="st3" cx="32.9" cy="67.5" r="1.5"/>
  <circle class="st3" cx="61" cy="67.5" r="1.5"/>
  <path class="st2" d="M47.1,69c0,0-0.3,7.3-0.8,8.8c-0.5,1.4-3.3,3.8,0,6.4"/>
  <circle class="st4" cx="36" cy="81.1" r="0.9"/>
  <circle class="st4" cx="33.6" cy="79.8" r="0.9"/>
  <circle class="st4" cx="33.6" cy="82.5" r="0.9"/>
  <circle class="st4" cx="58.5" cy="81.1" r="0.9"/>
  <circle class="st4" cx="60.9" cy="79.8" r="0.9"/>
  <circle class="st4" cx="60.9" cy="82.5" r="0.9"/>
  <path class="st5" d="M9.8,70.1c-1.2,1.2-2,2.8-2.1,4.6c-0.2,2,0.5,4,1.7,5.4c0,0,0.2,2.9,2.3,3.1"/>
  <path class="st2" d="M84,70.1c1.2,1.2,2,2.8,2.1,4.6c0.2,2-0.5,4-1.7,5.4c0,0-0.2,2.9-2.3,3.1"/>
  <path class="st6" d="M52.4,95.3c-1.7,0.3-3.4,0.4-5.1,0.4c-2.1,0-4.1-0.2-6-0.6"/>
  <path class="st7" d="M23.4,61.8c0,0,1.6-2.3,4.3-3.2c5.9-2,13.2,0.7,13.2,0.7"/>
  <path class="st7" d="M71.7,61.8c0,0-1.7-2.2-4.3-3.2c-4.9-1.9-13.2,0.7-13.2,0.7"/>
  <path class="st8" d="M10.3,69c0,0-6.7-27.4,2.7-42.3c0,0,9.1-3.2,9.3-9.1c0,0,15.5-9.9,15.5-14.2c0,0,2.8,2.7,4.3-0.5
    c0,0,5.2,7.8,10.2,7.7c5-0.1,7.4,1.7,10,7.6c0,0,9.6-3.8,10.5,9.3c0,0,10.2,5.7,10.9,9.1s1.3,10.3-0.7,32.9c0,0-2.7,1.9-4.7,0.2
    c-2-1.7-1.4-26.4-1.4-26.4s-2.9,1.2-5.8-1.1c-2.9-2.3-6.1-8.4-14.1-8.5c-8-0.1-10.2,4-11.2,5.8s-18.9,10.4-23.9-2
    c0,0-5.3,0.7-5.3,28.7C16.4,66,12.5,69.7,10.3,69z"/>
  <path class="st8" d="M10.2,68.9c0,0,3.2,33.7,2.7,35.9c-0.5,2.3,6.1,28.6,34.2,28.6s34-29.5,34-29.5s-1.9-29.6,1.9-34.5L77.3,66
    l0,22.4c0,0-1.4,14.8-18.3,15.5c0,0,1.9-18.7-8-17.9v3.4c0,0,5.1,1.2,5.1,8.6c0,7.4-3.4,3.2-9.3,3.2c-6,0-8.4,3-8.4-3.2
    c0-6.2,5.1-8.3,5.1-8.3V86c0,0-9.5,2-8,18.8c0,0-17-1.9-18.3-16.4C15.8,73.9,16.4,66,16.4,66"/>
  <line class="st9" x1="13.4" y1="72.4" x2="13.4" y2="103.9"/>
  <line class="st9" x1="17.2" y1="86.9" x2="17.2" y2="116.7"/>
  <line class="st9" x1="20.9" y1="95.7" x2="20.9" y2="122.3"/>
  <line class="st9" x1="24.7" y1="98" x2="24.7" y2="126"/>
  <line class="st9" x1="28.4" y1="99.7" x2="28.4" y2="128.9"/>
  <line class="st9" x1="32.2" y1="101.2" x2="32.2" y2="129.9"/>
  <line class="st9" x1="36" y1="93.4" x2="36" y2="130.5"/>
  <line class="st9" x1="39.7" y1="106.7" x2="39.7" y2="131.7"/>
  <line class="st9" x1="43.5" y1="100.4" x2="43.5" y2="132.7"/>
  <line class="st9" x1="47.2" y1="100.4" x2="47.2" y2="134"/>
  <line class="st9" x1="39.7" y1="86.9" x2="39.7" y2="92"/>
  <line class="st9" x1="43.5" y1="86" x2="43.5" y2="90.8"/>
  <line class="st9" x1="47.2" y1="86.9" x2="47.2" y2="88.4"/>
  <line class="st9" x1="81.1" y1="72.4" x2="81.1" y2="103.9"/>
  <line class="st9" x1="77.3" y1="86.9" x2="77.3" y2="116.7"/>
  <line class="st9" x1="73.6" y1="95.7" x2="73.6" y2="123.3"/>
  <line class="st9" x1="69.8" y1="98" x2="69.8" y2="126"/>
  <line class="st9" x1="66" y1="99.7" x2="66" y2="127.9"/>
  <line class="st9" x1="62.3" y1="101.2" x2="62.3" y2="128.9"/>
  <line class="st9" x1="58.5" y1="93.4" x2="58.5" y2="129.5"/>
  <line class="st9" x1="54.8" y1="106.7" x2="54.8" y2="130.7"/>
  <line class="st9" x1="51" y1="100.4" x2="51" y2="132.7"/>
  <path class="st9" d="M47.2,100.4"/>
  <line class="st9" x1="54.8" y1="86.9" x2="54.8" y2="92"/>
  <line class="st9" x1="51" y1="86" x2="51" y2="90.8"/>
  <line class="st9" x1="47.2" y1="86.9" x2="47.2" y2="88.4"/>
  <line class="st9" x1="18.4" y1="37.9" x2="7.9" y2="45.4"/>
  <line class="st9" x1="18.4" y1="33.7" x2="7.9" y2="41.2"/>
  <line class="st9" x1="17.4" y1="42.7" x2="7.9" y2="49.1"/>
  <line class="st9" x1="17.4" y1="46.9" x2="7.9" y2="53.4"/>
  <line class="st9" x1="17.4" y1="51.2" x2="7.9" y2="57.6"/>
  <line class="st9" x1="17.4" y1="55.4" x2="7.9" y2="61.8"/>
  <line class="st9" x1="17.4" y1="60.1" x2="8.9" y2="65.6"/>
  <line class="st9" x1="75.8" y1="38" x2="86.3" y2="45.4"/>
  <line class="st9" x1="76.9" y1="34.7" x2="86.3" y2="41.3"/>
  <line class="st9" x1="76.5" y1="34.4" x2="76.9" y2="34.7"/>
  <line class="st9" x1="76.8" y1="43.2" x2="86.3" y2="49.7"/>
  <line class="st9" x1="76.8" y1="47.5" x2="86.3" y2="53.9"/>
  <line class="st9" x1="76.8" y1="51.7" x2="86.3" y2="58.1"/>
  <line class="st9" x1="76.8" y1="55.9" x2="86.3" y2="62.4"/>
  <line class="st9" x1="76.8" y1="60.1" x2="85.3" y2="65.6"/>
  <path class="st9" d="M44.4,41.5c2.2-4.7,7-7.9,12.5-7.9c4.4,0,8.4,2.1,10.9,5.3c0,0,0.9,3.2,3.2,3.2"/>
  <path class="st9" d="M40.1,40.1c2.9-6.4,9.4-10.8,16.8-10.8c6.4,0,12,3.2,15.3,8.1"/>
  <path class="st9" d="M32.9,45.2C35.7,34,45.6,25.6,57.4,25.6c6.6,0,12.6,2.6,17.1,6.8"/>
  <path class="st9" d="M72.7,25.2c-0.4-4.1-3.9-7.3-8.1-7.3c-1.4,0-2.7,0.4-3.9,1c-2.4,1.2-5.1,1.8-8,1.8C44.3,20.7,37,14.9,34.9,7"/>
  <path class="st9" d="M42.1,3c1.9,4.5,6.3,7.6,11.5,7.6c1.4,0,2.6,0.8,2.9,2.1"/>
  <path class="st9" d="M37.7,3.5c1.9,7.1,8.4,12.4,16.1,12.4c0.9,0,1.9-0.1,2.7-0.2c1.7-0.3,2.2,0.3,3.2,1"/>
  <path class="st9" d="M61.7,22.7c0.8-1.1,2.1-1.8,3.5-1.7c2.1,0.2,3.7,2.1,3.5,4.2"/>
  <path class="st9" d="M83.7,36.6c-2.6-4-6.4-7.2-10.9-9.1"/>
  <path class="st9" d="M40.1,50.1"/>
  <path class="st9" d="M27.7,47.1c1.6-11.7,10.2-21.1,21.4-24"/>
  <path class="st9" d="M23.7,43c2.5-9.3,8.8-16.9,17.2-21.2"/>
  <path class="st9" d="M21.4,38.1c2.2-6.2,6-11.7,10.9-15.9"/>
  <path class="st9" d="M30.9,10.7c1.7,3.4,4.2,6.3,7.2,8.5"/>
  <path class="st9" d="M27.8,13.4c-1.9,9.5-8.7,17.2-17.5,20.6"/>
  <path class="st9" d="M22.3,17.7c-0.9,4.4-4.3,8-8.7,9.1"/>
  <path class="st9" d="M13.4,103.9c0,0.7-0.4,1.4-0.9,1.7"/>
  <path class="st9" d="M17.2,116.7c0,0.7-0.4,1.4-0.9,1.7"/>
  <path class="st9" d="M20.9,122.3c0,0.7-0.4,1.4-0.9,1.7"/>
  <path class="st9" d="M24.7,126c0,0.7-0.4,1.4-0.9,1.7"/>
  <path class="st9" d="M28.4,128.9c0,0.7-0.4,1.4-0.9,1.7"/>
  <path class="st9" d="M32.2,129.9c0,0.7-0.4,1.4-0.9,1.7"/>
  <path class="st9" d="M36,130.5c0,0.7-0.4,1.4-0.9,1.7"/>
  <path class="st9" d="M39.7,131.7c0,0.7-0.4,1.4-0.9,1.7"/>
  <path class="st9" d="M43.5,132.7c0,0.7-0.4,1.4-0.9,1.7"/>
  <path class="st9" d="M47.2,134c0,0.7-0.4,1.4-0.9,1.7"/>
  <path class="st9" d="M81.1,103.9c0,0.7,0.4,1.4,0.9,1.7"/>
  <path class="st9" d="M77.3,116.7c0,0.7,0.4,1.4,0.9,1.7"/>
  <path class="st9" d="M73.6,123.3c0,0.7,0.4,1.4,0.9,1.7"/>
  <path class="st9" d="M69.8,126c0,0.7,0.4,1.4,0.9,1.7"/>
  <path class="st9" d="M66,127.9c0,0.7,0.4,1.4,0.9,1.7"/>
  <path class="st9" d="M62.3,128.9c0,0.7,0.4,1.4,0.9,1.7"/>
  <path class="st9" d="M58.5,129.5c0,0.7,0.4,1.4,0.9,1.7"/>
  <path class="st9" d="M54.8,130.7c0,0.7,0.4,1.4,0.9,1.7"/>
  <path class="st9" d="M51,132.7c0,0.7,0.4,1.4,0.9,1.7"/>
  <path class="st10" d="M12.7,69.5l8.3-7.7c0,0-0.2,14,12,14C45.1,75.8,44,62.4,44,62.4s-7.8-3.8-23.1-0.5"/>
  <path class="st10" d="M81.6,69.5l-8.3-7.7c0,0,0.2,14-12,14c-12.2,0-11.1-13.5-11.1-13.5s7.8-3.8,23.1-0.5"/>
  <path class="st10" d="M44,62.4c0,0,3-0.9,6.1,0"/>
</svg>

